<?xml version="1.0" encoding="UTF-8"?>
<svg xmlns="http://www.w3.org/2000/svg" width="20" height="20" viewBox="0 0 20 20">
	<title>score</title>
    <path id="head1" d="M16.382 16.21c1.244-.667 1.906-1.872 1.498-2.78-.434-.968-1.928-1.24-3.333-.61-1.407.63-2.195 1.93-1.76 2.898.435.968 1.928 1.24 3.333.609.088-.04.179-.073.262-.117z"/>
    <path id="head2" d="M5.381 17.543c1.244-.667 1.907-1.872 1.5-2.78-.436-.968-1.929-1.24-3.334-.61-1.407.631-2.195 1.93-1.76 2.898.434.968 1.928 1.24 3.333.61.088-.04.179-.074.261-.118z"/>
    <path id="stems" d="M6 2v13.334h1L7.03 8H17l-.03 6H18V2zm1.03 2H17l-.03 2H7z"/>
</svg>
