<?xml version="1.0" encoding="utf-8"?>
<svg xmlns="http://www.w3.org/2000/svg" width="24" height="24" viewBox="0 0 24 24">
    <g id="score">
        <path d="M16.786 16.657c.933-.5 1.43-1.404 1.124-2.085-.326-.726-1.446-.93-2.5-.457-1.055.473-1.646 1.447-1.32 2.173.326.726 1.446.93 2.5.457.066-.03.134-.055.196-.088z" id="head1"/>
        <path d="M8.786 17.657c.933-.5 1.43-1.404 1.124-2.085-.326-.726-1.446-.93-2.5-.457-1.055.473-1.646 1.447-1.32 2.173.326.726 1.446.93 2.5.457.066-.03.134-.055.196-.088z" id="head2"/>
        <path d="M9 6v10h1v-5h7v4h1V6H9zm1 2h7v1h-7V8z" id="stems"/>
    </g>
</svg>
