<?xml version="1.0" encoding="UTF-8"?>
<svg xmlns="http://www.w3.org/2000/svg" viewBox="0 0 20 20" height="20" width="20">
    <title>score</title>
    <path d="M15.18 16.684c1.399-.75 2.144-2.106 1.685-3.128-.489-1.089-2.17-1.395-3.75-.686-1.583.709-2.47 2.172-1.98 3.26.49 1.09 2.169 1.396 3.75.686.099-.045.2-.082.294-.132z" id="head1" stroke-width="1.125"/>
    <path d="M5.178 17.999c1.4-.75 2.145-2.106 1.687-3.128-.49-1.089-2.17-1.395-3.75-.686-1.583.71-2.47 2.171-1.98 3.26.488 1.09 2.169 1.395 3.75.687.098-.045.2-.084.293-.133z" id="head2" stroke-width="1.125"/>
    <path d="M5 3.602v11.732h2l.03-4.772L15 9.5V14h2V2zm2 2.46L15 5l-.03 1.5L7 7.562z" id="stems"/>
</svg>
